<svg width="1920" height="1080" viewBox="0 0 1920 1080" fill="none" xmlns="http://www.w3.org/2000/svg">
<path d="M1017.55 487.2L1049.65 489.9L1013.45 636.7H970.85L941.45 526.2L913.25 636.7H870.35L833.55 489.9L865.95 487.2L893.25 600.6L922.05 490.6H960.85L990.55 601.5L1017.55 487.2ZM1585.45 520.2C1590.65 532.3 1593.35 545.9 1593.35 561.8C1593.35 577.7 1590.85 591.7 1585.75 603.7C1580.65 615.7 1573.55 625.1 1564.55 631.9C1555.55 638.6 1545.05 642 1533.15 642C1523.35 642 1514.45 639.6 1506.55 634.8C1498.55 630 1492.45 623.3 1488.15 614.7V706.1H1454.75V490.7L1483.75 487.2L1487.25 509.8C1491.75 501 1498.05 494.1 1506.05 489.2C1514.05 484.4 1522.95 481.9 1532.75 481.9C1544.65 481.9 1555.15 485.2 1564.15 492C1573.15 498.7 1580.25 508.2 1585.45 520.2ZM1553.85 586.2C1556.55 579.1 1557.95 571 1557.95 561.8C1557.95 552.6 1556.55 544.5 1553.65 537.3C1550.85 530.1 1546.85 524.5 1541.65 520.5C1536.55 516.5 1530.15 514.5 1523.05 514.5C1515.95 514.5 1509.75 516.6 1504.55 520.7C1499.35 524.8 1495.35 530.4 1492.55 537.6C1489.75 544.7 1488.35 552.6 1488.35 561.8C1488.35 571 1489.85 579.1 1492.55 586.2C1495.25 593.3 1499.25 598.9 1504.55 603.1C1509.85 607.3 1516.05 609.4 1523.05 609.4C1530.05 609.4 1536.35 607.3 1541.65 603.1C1547.05 598.9 1551.05 593.3 1553.85 586.2ZM1118.15 642.2C1136.15 642.2 1153.55 633 1164.65 617.5C1178.55 598.2 1181.25 573 1172.35 546.2C1165.85 526.5 1154.15 510.2 1140.75 496.6C1142.95 495.3 1145.15 494 1147.45 492.8C1173.45 478.9 1206.45 482.9 1226.25 491C1207.45 506.4 1195.25 525.8 1190.25 548.5C1185.25 571.2 1188.95 592.5 1200.65 608.4C1210.45 621.7 1224.95 630 1240.65 631.4C1256.95 632.8 1272.35 627.7 1284.05 617C1298.15 604 1305.95 583.8 1305.95 560.1C1305.95 531.8 1293.45 510 1280.05 494.7C1280.35 494.6 1280.75 494.4 1281.05 494.3C1304.25 485.7 1336.35 489 1354.55 501.3C1330.05 522.5 1320.55 543.4 1317.15 559.3C1311.25 587.4 1319.25 605.8 1327.05 616.4C1336.65 629.6 1351.65 638 1368.05 639.5C1383.55 641 1398.65 635.9 1410.55 625.3C1424.45 613 1432.35 594.4 1432.75 573C1433.25 550.1 1423.05 527.1 1402.35 504.5C1406.35 502.2 1410.15 500.2 1413.55 498.5C1422.85 493.8 1437.15 487.7 1440.05 486.7L1429.75 458.7C1425.35 460.3 1409.85 467 1400.15 471.9C1392.75 475.6 1385.95 479.4 1379.75 483.3C1378.45 482.2 1377.05 481.1 1375.65 480C1350.05 459.8 1305.05 454 1270.85 466.6C1265.45 468.6 1260.25 470.7 1255.25 473.1C1253.55 471.9 1252.05 471 1250.85 470.2C1228.55 456.4 1176.95 443.3 1133.45 466.6C1127.75 469.6 1122.45 472.8 1117.35 476.2C1108.05 469 1098.75 462.7 1090.35 457C1086.75 454.6 1083.35 452.2 1080.15 450L1063.05 474.5C1066.35 476.8 1069.95 479.2 1073.65 481.7C1080.05 486 1086.85 490.6 1093.65 495.6C1071.35 517.8 1058.55 544.7 1057.45 573.5C1056.65 593.2 1063.05 611.2 1075.35 624C1086.65 635.7 1101.85 642.2 1118.15 642.2ZM1116.75 514.8C1128.75 526.3 1138.85 539.7 1144.05 555.6C1149.75 573 1148.55 588.8 1140.45 600C1134.85 607.8 1126.05 612.4 1118.05 612.4C1110.05 612.4 1102.45 609.2 1096.85 603.3C1090.25 596.4 1086.75 586.2 1087.25 574.7C1088.15 552.9 1098.55 532.1 1116.75 514.8ZM1377.45 521.5C1394.85 539.3 1403.35 556.3 1402.95 572.4C1402.75 585.4 1398.35 596.3 1390.75 603.1C1385.15 608.2 1378.15 610.6 1370.95 609.9C1362.95 609.2 1355.75 605.2 1351.15 598.9C1345.25 590.8 1343.55 579.3 1346.45 565.7C1350.15 548.2 1362.95 533.3 1377.45 521.5ZM1252.25 508.9C1263.85 520 1276.15 537.3 1276.05 560.3C1276.05 575.5 1271.75 587.9 1263.85 595.1C1258.35 600.2 1251.25 602.5 1243.25 601.8C1236.15 601.2 1229.45 597.2 1224.75 590.9C1218.25 582 1216.35 569.3 1219.45 555.1C1223.55 536.3 1234.55 520.9 1252.25 508.9ZM804.35 556.5C796.75 553.4 787.55 550.4 777.05 547.7C767.45 545.5 760.75 543.8 757.05 542.6C753.35 541.4 749.95 539.3 746.95 536.6C743.95 533.9 742.45 530.2 742.45 525.7C742.45 522.6 743.35 519.7 745.05 517C746.85 514.4 749.25 512.2 752.45 510.7C755.55 509.1 759.35 508.4 763.65 508.4C770.85 508.4 776.85 510.6 781.45 514.9C786.05 519.2 788.65 525.5 789.25 533.7L821.25 526.4C820.45 517.8 817.55 510.1 812.45 503.3C807.35 496.5 800.55 491.3 792.15 487.4C783.75 483.6 774.55 481.7 764.55 481.7C753.95 481.7 744.65 483.7 736.45 487.7C728.35 491.7 721.85 497.3 717.05 504.6C712.25 511.8 709.85 520 709.85 529C709.85 539 712.35 547.1 717.35 553.2C722.35 559.4 728.45 563.9 735.55 566.7C742.65 569.5 751.95 572.1 763.35 574.5C770.75 576.5 776.75 578.2 781.25 579.6C785.75 581 789.45 583.2 792.45 585.9C795.35 588.7 796.85 592.2 796.85 596.5C796.85 600 795.75 603.2 793.45 606.1C791.15 609 787.95 611.2 783.55 613C779.15 614.8 774.45 615.6 769.15 615.6C762.45 615.6 756.65 614.3 751.55 611.6C746.45 609 742.45 605.2 739.55 600.3C736.65 595.4 735.05 589.6 734.85 583L702.85 589.5C703.45 599.9 706.65 609 712.55 616.8C718.45 624.6 726.25 630.9 736.05 635.5C745.85 640.1 756.75 642.4 768.65 642.4C780.55 642.4 791.05 640.2 800.65 635.9C810.25 631.6 817.65 625.7 822.95 618.1C828.25 610.6 830.85 602.1 830.85 592.7C830.85 583.3 828.25 575.9 823.25 570C818.25 564.1 811.95 559.6 804.35 556.5ZM650.05 488.7V576.1C649.85 583 648.65 588.5 646.55 592.5C644.05 597.3 640.85 601.2 636.45 604C632.05 606.8 627.55 608.1 622.15 608.1C617.05 608.1 612.65 606.8 608.95 604.3C605.25 601.8 602.25 598.6 599.95 594.3C597.45 589.7 596.15 585 596.25 578.4L596.45 487.1L563.15 488.6V581.7C563.55 595.7 566.35 605.2 570.15 612.7C574.45 621 580.35 627.3 587.75 632.1C595.15 636.9 601.55 639.3 611.15 639.3C616.45 639.3 621.65 638.4 626.85 636.2C632.15 634 636.35 630.9 640.65 626.9C644.85 623 648.35 618.4 651.05 613.1V623.7C650.75 648.2 649.25 654.5 642.85 663.4C636.55 672.1 625.45 677.6 612.85 676.4C603.05 675.5 590.05 671.9 575.95 654.7L551.05 675.1C572.65 701.4 593.45 706.9 609.45 708.5C611.95 708.7 614.55 708.9 616.95 708.9C638.75 708.9 657.85 699.5 670.05 682.6C682.65 665 683.05 650.7 683.45 624.6L683.15 487.1L650.05 488.7ZM514.05 490C506.05 484.8 497.05 482.2 487.05 482.2C477.05 482.2 468.05 484.9 460.05 490.3C452.05 495.7 445.95 503.1 441.85 512.5C438.15 503.5 434.25 496.2 425.95 490.5C417.65 484.8 408.15 482 397.65 482C389.05 482 381.25 484.2 374.25 488.8C367.25 493.3 361.85 499.7 357.95 507.9L353.55 487.3L326.25 490.6V636.7H359.35V546.2C359.35 539.4 360.55 533.4 362.85 528.4C365.15 523.4 368.45 519.5 372.65 516.6C376.85 513.8 381.95 512.3 387.75 512.3C393.05 512.3 397.75 513.7 401.85 516.6C405.95 519.4 409.05 523.4 411.25 528.4C413.45 533.4 414.45 539.3 414.45 546.2L414.15 636.7H447.25L447.55 546.2C447.55 539.7 448.85 533.9 451.35 528.7C453.85 523.5 457.35 519.5 461.65 516.6C465.95 513.8 470.85 512.3 476.35 512.3C481.65 512.5 486.35 514 490.45 516.9C494.55 519.7 497.85 523.7 500.35 528.8C502.75 533.9 504.05 539.7 504.05 546.1V636.6H537.25V542.1C537.25 530.3 535.05 520 530.65 511.1C526.25 502.2 522.15 495.2 514.05 490Z" fill="#123645"/>
</svg>
